<?xml version="1.0" encoding="utf-8"?>
<!-- Generator: Adobe Illustrator 21.0.2, SVG Export Plug-In . SVG Version: 6.00 Build 0)  -->
<svg version="1.1" id="Layer_1" xmlns="http://www.w3.org/2000/svg" xmlns:xlink="http://www.w3.org/1999/xlink" x="0px" y="0px"
	 viewBox="0 0 1552.5 760.4" style="enable-background:new 0 0 1552.5 760.4;" xml:space="preserve">
<style type="text/css">
	.st0{fill:none;stroke:#FFFFFF;stroke-width:5;stroke-miterlimit:10;}
	.st1{fill:#FFFFFF;}
</style>
<path class="st0" d="M1222.4,698.2"/>
<path class="st0" d="M1222.4,698.2H180.6c-80.8,0-146.9-50.1-146.9-111.3V158.1c0-61.2,66.1-111.3,146.9-111.3h1186.2
	c80.8,0,146.9,50.1,146.9,111.3v428.9c0,61.2-66.1,111.3-146.9,111.3h-19"/>
<path class="st1" d="M1307,683.3c-7.6-4.4-17.9-1.3-25.1,6.8c-7.2-8.1-17.5-11.2-25.1-6.8c-8.7,5-10.6,22.2-4,31
	c4.6,6.2,11,5.1,26.1,16.6c1.8,1.4,3.3,2.6,4.3,3.4c0.5-0.5,1.4-1.3,2.4-2.2c13.4-12.1,20.6-11.5,25.3-17.8
	C1317.6,705.5,1315.6,688.2,1307,683.3z"/>
<ellipse transform="matrix(0.9656 -0.2602 0.2602 0.9656 -127.6447 352.0222)" class="st1" cx="1265.9" cy="658.2" rx="12.2" ry="15.9"/>
<ellipse transform="matrix(0.1096 -0.994 0.994 0.1096 498.3527 1872.6384)" class="st1" cx="1294.4" cy="658.2" rx="15.9" ry="12.2"/>
<ellipse transform="matrix(0.9656 -0.2602 0.2602 0.9656 -132.2295 346.6857)" class="st1" cx="1243.4" cy="672.8" rx="10.4" ry="13.2"/>
<ellipse transform="matrix(0.4671 -0.8842 0.8842 0.4671 108.718 1523.0831)" class="st1" cx="1317.9" cy="671.4" rx="13.2" ry="10.4"/>
</svg>
