<?xml version="1.0" encoding="utf-8"?>
<!-- Generator: Adobe Illustrator 21.0.2, SVG Export Plug-In . SVG Version: 6.00 Build 0)  -->
<svg version="1.1" id="Layer_1" xmlns="http://www.w3.org/2000/svg" xmlns:xlink="http://www.w3.org/1999/xlink" x="0px" y="0px"
	 viewBox="0 0 1945 912.9" style="enable-background:new 0 0 1945 912.9;" xml:space="preserve">
<style type="text/css">
	.st0{fill:none;stroke:#FFFFFF;stroke-width:5;stroke-miterlimit:10;}
	.st1{fill:#FFFFFF;}
</style>
<path class="st0" d="M1410.2,772"/>
<path class="st0" d="M1410.2,772H368.4c-80.8,0-146.9-50.1-146.9-111.3V231.9c0-61.2,66.1-111.3,146.9-111.3h1186.2
	c80.8,0,146.9,50.1,146.9,111.3v428.9c0,61.2-66.1,111.3-146.9,111.3h-19"/>
<path class="st1" d="M1494.7,757.1c-7.6-4.4-17.9-1.3-25.1,6.8c-7.2-8.1-17.5-11.2-25.1-6.8c-8.7,5-10.6,22.2-4,31
	c4.6,6.2,11,5.1,26.1,16.6c1.8,1.4,3.3,2.6,4.3,3.4c0.5-0.5,1.4-1.3,2.4-2.2c13.4-12.1,20.6-11.5,25.3-17.8
	C1505.3,779.3,1503.3,762,1494.7,757.1z"/>
<ellipse transform="matrix(0.9656 -0.2602 0.2602 0.9656 -140.3811 403.4169)" class="st1" cx="1453.6" cy="732" rx="12.2" ry="15.9"/>
<ellipse transform="matrix(0.1096 -0.994 0.994 0.1096 592.1766 2124.9878)" class="st1" cx="1482.2" cy="732" rx="15.9" ry="12.2"/>
<ellipse transform="matrix(0.9656 -0.2602 0.2602 0.9656 -144.9659 398.0804)" class="st1" cx="1431.2" cy="746.6" rx="10.4" ry="13.2"/>
<ellipse transform="matrix(0.4671 -0.8842 0.8842 0.4671 143.5238 1728.4429)" class="st1" cx="1505.6" cy="745.2" rx="13.2" ry="10.4"/>
</svg>
