<?xml version="1.0" encoding="utf-8"?>
<!-- Generator: Adobe Illustrator 21.0.2, SVG Export Plug-In . SVG Version: 6.00 Build 0)  -->
<svg version="1.1" id="TPPT" xmlns="http://www.w3.org/2000/svg" xmlns:xlink="http://www.w3.org/1999/xlink" x="0px" y="0px"
	 viewBox="0 0 370.7 226.4" style="enable-background:new 0 0 370.7 226.4;" xml:space="preserve">
<style type="text/css">
	.st0{fill:#939393;}
</style>
<g>
	<g>
		<path class="st0" d="M100.2,220.9c13.2-5.2,23.9-14.2,30.9-25.9c2.7-4.5,3.2-5.8,6.3-8.3c1.8-1.5,8.7-1.1,12.8-1.5
			c2.1,0.2,4.6,0.2,6.7,0.2c1.1,0,3-0.2,4,0.5c0.6,0.4-0.2,3.4-0.5,4.1c-0.5,1.1-2,0.9-3.2,1.1c-12,2.2-15.2,6.6-15.7,17.9
			c0.3,7.6,4.6,12.5,11.7,14.1c8.6,2,14.9-0.8,18.9-8.3c3.2-6,1.8-14.7-2.8-19.2c-1.5-1.4-3.3-4-3.2-5.1c0.1-0.7,0.1-1.3,0.2-1.9
			c0.2-0.7,0.2-1.8,0.5-2.5c0.8-1.4,4.6-1.5,6-1.8c4.7-0.3,7.9-0.5,10.4-0.5c1.3,0,2.8,0.7,3.6,2.4c1.6,3.6,2.6,5,3.8,8.8
			c0.3,1.1,0.8,2.9,1.1,4c0.9,4.2,2.2,8,7.8,8.1c1.2,0,3,1.5,3.6,2.7c2.4,4.9,5.2,4.8,9.3,1.7c2.4-1.8,5.6-2.4,8.4-3.8
			c3.4-1.7,11-6.6,14.5-9.2c0.9-0.7-0.3-2.7-1.4-2.5c-1.1,0.2-5.2,1.3-6.2,0.8c2.1-1,3.1-1.3,5.2-2.2c0.9-0.4,1.9-0.4,2.8-0.8
			c0.4-0.2,4.8-1.3,5.2-1.5c4-1.4,6.9-7.8,3.1-7.6c-2.9,0.2-13.6,1.3-15.1,2.1c-5.2,2.7-5.6-1.6-7.4-4.9c-1.3-2.3-2.2-4.7-3-7.1
			c-3.1-10.2-6.2-20.3-9.1-30.5c-1.3-4.8-2-9.7-3.2-14.5c-1.1-4.4-2.1-8.8-4-12.9c-3.7-8.3-11.6-12.5-19.4-14.4
			c-7.6-1.9-4.4-5-3.6-9.7c0.3-1.6-0.2-3.3-1.2-4.6c-3.4-4.5-3-7,0.8-7.5c7.2-0.9,14.4-1.9,21.6-1.9c4.6,0,12.6,1.2,16.7,1.9
			c1.1,0.2,2.3-0.3,3-1.2c1.4-1.9-1.8-1.9-3.1-2.9c-1.1-0.8-0.8-2.1-0.3-2.5c1-0.9,1.6-1.5,3.1-1.9c1.7-0.4,4.4-1.2,8.1-0.4
			c0.6,0.1,1.1-0.5,0.8-1.1c-1.4-2.7-1.3-3.6-3.2-4.4c-6.9-3-13.1-0.2-19.9,3.3c-4.8,2.4-11.8,1.2-17.3,0.7c-2.2-0.2-9-0.8-9.5-1.5
			c-1-1.5-0.9-2.1-5.7-1.4c-4,0.6-11.9-1.4-15.5-3.1c-6.9-6.1-12.5-5.1-17.7-9.1c-4.1-3.2-7.8-2.8-4.9-7.1c0.5-0.7,2.4-4.3,2.9-5.5
			c0.4-0.9,0.5-1.9,0.7-2.8c0.8-4.3,4.1-5.8,4.6-9.5c0.4-3.4-1.7-7.2-1.8-9.8c-0.1-1.8-0.7-4.9-0.2-6.8c1.2-4.5,0.4-7.5-3.3-10
			c-8.4-5.8-17.2-2.5-26.2-1.9c-5.2,0.3-9.7,3.4-12,8.1c-3.4,7-7.5,15.5-10.7,21.7c-1.9,3.6-4.9,6.3-7.8,9.3
			c-1.1,1.2-2.5,2.7-3.2,4.3c-3.1,6.6-4.8,6.4-9.9,1.3c-2.4-2.4-5.6-4.6-8.2-5.8c-0.6-0.3-1.6-0.3-2.3-0.4
			c-5.4-0.6-13.2,1.2-14.8,5.2c-0.3,1,1.2,2,1.9,1.9c3.2-0.2,8.1-1.7,11.3-2.1c2.1-0.3,4.6-1,5.8,0.4c1.3,1.6,5.6,3.5,6.3,7.7
			c0.2,1.1,0.4,1.5,0.6,2.3c3.2,11.5,5.5,41.3,6.1,44c1.2,6.2,2.3,9.4-5.3,10.4c-14.9,2-25.6,10.4-33.8,21.9
			c-12.4,17.4-13.7,36.5-6.3,56.3c0.6,1.5,1.1,3.4,1.5,4.2c0.1,0.2,0.6,1,0.7,1.3c0.4,0.7,5.9,7.8,6.7,8.6
			c4.2,4.2,8.6,8.2,13.4,11.6c9.6,6.8,21.3,7.1,32.4,9.1C84.5,223,95.2,221.3,100.2,220.9z M203.2,172c0.8,2.4,0.3,2.3,1.7,4.5
			c0.2,0.3,5.8,8.3,4.9,7.8c-5-2.8-8.1-7-8.7-12.5C200.9,169.7,202.6,170,203.2,172z M174.6,133.7c1.7,1.3,1.4,1,2.5,2.1
			c2,2,5.1,1.9,5.3,3.8c0.1,1.6,1.5,8.7,0.2,13c-0.1,0.3-0.6,0.4-0.8,0.1c-5.3-9.4-10.1-15.1-9.9-17.9
			C172.1,133.5,173.7,133,174.6,133.7z M150.7,82.7c0.5-1.6,2.9-2.6,3.4-3c6,0,9.6,1.5,9.7,6.2c0,1.3-3.5,3.4-5.6,3.8
			C154.9,90.2,149.9,85.4,150.7,82.7z M137.4,139.7c2.2-0.1,6.3,0.2,13.1-0.4c5.4-0.5,15.2-2.9,17.8,0.9c2.8,4,5.1,10,7.9,15.9
			c4,8.5,7.1,16.5,6.5,18.9c-0.7,3-8,2.1-15.6,2.9c-1.3,0.1-0.1-6.8-2-6.6c-0.9,0.1-3.4-0.4-3.7,1.2c-0.4,2.2,0.1,5.4-0.3,5.4
			c-2.5,0.3-8.8-0.4-13.6-0.3c-1.5,0-2.1,0-3.4,0c-7.8,0.3-5.6-1.9-5.3-5.4c0.3-2.9,1-12.9-0.8-21c-1.4-6.3-0.5-2.1-3.2-9.3
			C133.5,138.3,136.4,139.8,137.4,139.7z M97,58.1c2.6-3.3,6.2-1.1,7-0.2c0.4,0.4,1,1.2,1.6,1.9c0.3,0.4,0.6,0.8,0.9,1.1
			c0.6,0.6,0.3,0.6,0.9-0.2c1.1-1.5,3.4-3.8,5.6-4.1c1.7-0.2,3.2,0.3,4.3,2c0.5,0.7,0.9,2.9,0.6,4.4c-0.1,0.5-0.2,0.8-0.5,1.3
			c-0.5,0.9-1.4,1.8-2.2,2.7c-1.7,2-3.7,4.1-5.8,6c-2.3,2-2.2,1.9-4.3,0.2c-2-1.6-4.2-4.2-6.4-6.6c-1-1.1-2.1-2.3-2.5-3.1
			c-0.4-0.9-0.7-1.3-0.7-1.8C95.7,59.8,95.7,59.7,97,58.1z"/>
		<path class="st0" d="M350,144.6c-0.6-2.3-2.3-4.2-3.4-6.3c-0.6,0-1.2,0-1.8,0c-0.7,1.6-2.3,3.4-2.1,4.9c0.9,8.5,2.2,17,3.3,25.5
			c1,7.2,2.1,14.4,2.8,21.6c0.1,1.2-1.1,2.6-1.7,3.8c-1.1-1.1-2.5-2.1-3.1-3.4c-1-2-1.3-4.5-2.3-6.5c-2.4-5-4.2-10.5-7.7-14.6
			c-8-9.7-17.5-18.1-23.5-29.5c-1.9-3.5-3.5-7.4-6.1-10.3c-4.1-4.5-4.3-9.6-4.3-15c0.1-5.7,0.1-11.4-0.5-17c-0.2-2-2.1-4.2-3.8-5.5
			c-7.2-5.3-22.4-3.3-28.9,2.6c-3,2.7-7.5,3.8-11.5,5.4c-2.1,0.8-4.6,0.7-6.6,1.8c-1,0.5-1.9,3.3-1.4,4c3.5,4.7,6.7,9.6,13.9,9.7
			c6.6,0.1,9,4.1,6.7,10.2c-2.1,5.5-5.3,10.6-7.4,16.2c-2.4,6.3-6,3.1-9.6,0.3c-2.4-1.8-4.6-3.9-6.8-5.9c-1.7-1.5-2.9-2.8-4.9-3.3
			c-2-0.5-4.4,0.2-6.3,0.9c-1.6,0.6-3.2,1.8-4.5,3.2c-0.8,0.9-2.3,2.6-2.6,4c-0.3,1.2,0.5,2.4,1.7,2.6c1.5,0.2,3.8-0.4,4.7-1
			c6.5-4.5,9.2,1,13.1,8c1.7,3.1,4,5.9,6.4,8.6c1.9,2.1,2.8,6.1,7.3,4.3c0.8-0.3,4.4,1.9,4.7,3.5c1.8,8.7,2.8,17.9,3.9,26.8
			c0.5,3.9-0.3,8-0.8,12c-0.1,0.6-2,1-2.8,1.6c-0.8,0.6-0.9,1.4-0.9,2c-0.1,0.8-0.2,1.6,0.7,1.7c2.1,0.2,6.1,0.5,7-0.3
			c1.6-1.3,2-3.8,2.2-5.9c0.6-7,1.2-14.2,1.7-21.2c0.3-3.4,2.6-6.1,5.8-3.3c7,6.2,12.1,13.8,19.9,19.7c4.1,3.1,1.4,5.2-2.9,5.4
			c-1.4,0.1-5.7,0.2-7,0.8c-2.1,0.9-11.9,6.4,0,7.3c1,0.1,4.7,0.1,5.6,0.1c13.2,0.2,26.5,0.7,39.7-0.2c5.7-0.4,13-2.2,16.6-6.1
			c7-7.8,7.9-18.8,6.5-28.8C357.3,167.4,353.2,156,350,144.6z M297.8,147.5c-0.1,0.5-0.2,0.8-0.5,1.3c-0.5,0.9-1.4,1.8-2.2,2.7
			c-1.7,2-3.7,4.1-5.8,6c-2.3,2-2.2,1.9-4.3,0.2c-2-1.6-4.2-4.2-6.4-6.6c-1-1.1-2.1-2.3-2.5-3.1c-0.4-0.9-0.7-1.3-0.7-1.8
			c0-2-0.1-2.1,1.3-3.7c2.6-3.3,6.2-1.1,7-0.2c0.4,0.4,1,1.2,1.6,1.9c0.3,0.4,0.6,0.8,0.9,1.1c0.6,0.6,0.3,0.6,0.9-0.2
			c1.1-1.5,3.4-3.8,5.6-4.1c1.7-0.2,3.2,0.3,4.3,2C297.7,143.8,298.1,145.9,297.8,147.5z"/>
	</g>
	<ellipse class="st0" cx="82.8" cy="165.7" rx="60.9" ry="60.6"/>
</g>
</svg>
