<?xml version="1.0" encoding="utf-8"?>
<!-- Generator: Adobe Illustrator 21.0.2, SVG Export Plug-In . SVG Version: 6.00 Build 0)  -->
<svg version="1.1" id="TPPT" xmlns="http://www.w3.org/2000/svg" xmlns:xlink="http://www.w3.org/1999/xlink" x="0px" y="0px"
	 viewBox="0 0 548.4 535.4" style="enable-background:new 0 0 548.4 535.4;" xml:space="preserve">
<style type="text/css">
	.st0{fill:#FFFFFF;}
	.st1{font-family:'Avenir-Black';}
	.st2{font-size:27.61px;}
	.st3{font-size:95.1852px;}
	.st4{font-size:28.9521px;}
	.st5{font-size:71.5877px;}
	.st6{font-size:26.8995px;}
	.st7{font-size:40.8508px;}
	.st8{font-size:38px;}
</style>
<g>
	<g>
		<path class="st0" d="M530.9,312.5c-2.3-2.1-2.6-4.1-1-7.1c2.9-5.2,5.4-10.6,7.8-16.1c0.9-2.2,1.8-5,1.1-7.1
			c-2.6-8.6-5.2-17.3-8.8-25.6c-2.5-5.9-3.4-13.3-11.4-15.6c-1-0.3-3-2.6-3.3-4.2c-0.4-1.9-0.5-3.9-0.7-6.5
			c-0.5-10.9,1.3-49.2-0.7-57.9c-0.2-4.6-5.2-6-10.1-5.1c-7.6,1.4-14.2-0.4-20.3-5.8c-5.2-4.5-11.3-8-17.2-11.6
			c-5.4-3.4-14.3-2.4-16.6,2.3c-2.3,4.7-6.1,5.3-10.4,5.7c-7.4,0.7-14.9,1.7-22.3,2.2c-2.1,0.1-5.3-0.2-6.4-1.5
			c-4.9-6.2-11.5-5.3-18-4.9c-3.3,0.2-6.6,1-9.9,1.7c-3.2,0.6-6.7,2.7-9.4,1.9c-6.6-2.1-11.8-1.2-17,3.3c-5,4.3-6,2.9-8.3-3.4
			c-1.4-3.8-4.4-7.3-5.6-11.2c-1.7-5.7-5.6-8.2-11.3-7.1c-4.9,0.9-9.8,3.5-14.6,3.2c-11-0.7-21.4-4.8-30.3-11.3
			c-6-4.4-11.4-9.7-16.9-14.7c-1.4-1.3-3.1-3.2-3.3-5c-0.9-9.9-1.8-19.8-2-29.7c-0.3-14.2,0.7-28.9,0-42.8c-0.2-4.3-1.4-5.9-5.7-5.8
			c-4.6,0.2-9.2,0-13.9,0C218.2,32.9,192,33,165.8,33c-3.8,0-9.5,0.5-9.5,4.7c-0.3,18.4,1.8,91.6,1.6,109.5
			c-0.2,24.8-0.3,50.1-0.3,74.1c-0.3,5.2,0.5,9.6-1.3,15c0,0,0.3,0.4-3.3,0.5c-5.8,0.2-69.7,0.5-76,0.2c0,0,0,0,0,0
			c-1-0.2-2-0.1-2.3-0.1c-12-0.7-59.7-1.2-64.5-1c-2.4,0.1-5.1,3.1-3.4,6c3.7,6.3,5.1,10.4,10.2,16.8c10.5,13.4,22.2,24.2,33.6,35.3
			c7.2,6.9,14.8,13.9,17.8,24.2c3,10.2,6.4,20.3,14.3,28.2c5.7,5.7,9.7,14,16.4,17.3c11.8,5.9,22.5,13,33.5,22
			c1.9,1.6,4.8,1.3,6.3-0.7c4.1-5.4,8.1-10.5,11.3-16.1c4-7,6.8-13.9,10.4-21.1c4.8-9.8,13.2-9.5,19.4-3.4
			c4.2,4.2,8.6,8.2,13.4,11.6c9.6,6.8,21.3,7.1,32.4,9.1c2.6,0.5,5.6,1.5,7.3,3.4c3,3.2,4.8,7.4,7.5,10.9
			c11.7,15.1,18.5,30.9,31.3,48c7.8,7.8,10.4,13.6,17.3,23.4c3.2,4.5,9.6,11.2,11.7,16.2c4.3,10.3,8.3,21.2,12.3,31.6
			c2.3,6,3.6,12.1,11.6,15c15.5,5.5,30.4,13,45.5,19.5c1.2,0.5,3,0.5,4.2,0c3.1-1.4,6.5-2.8,9-5.1c2.1-2,4.4-5.2,4.4-7.8
			c-0.1-12.6-0.4-25.4-1.8-37.9c-0.6-5.3,0.8-9.3,2.9-13.5c2.5-5,5.2-9.9,7.3-15c6.9-16.9,17.3-30,32.9-40.6
			c8.9-6.1,19.6-12.5,23.9-23.6c1.7-4.5,3.1-8,10.7-5.7c1.9,0.6,3.9-0.9,5.6-2.2c7.9-6.1,15.3-11.3,23-17.6c2.4-1.9,4.8-3.8,7.2-5.7
			c9.1-6.8,17.1-15.8,29.9-15.9c1.3,0,3-1.5,3.8-2.7c8.6-14,8.6-14-1.9-26.8C531.2,312.8,531.1,312.6,530.9,312.5z M525.9,338.5
			c-3.7,0.7-8.2,0.7-10.9,2.8c-15,11.7-30.6,21.8-45.4,33.8c-1.5,1.2-8.3,0.1-10.2,0.4c-7.6,1.2-9.9,4.1-13.3,12
			c-1.8,4.1-5.5,11.4-9.2,14.3c-9.9,7.6-18.5,14.5-28.5,21.9c-1.6,1.2-2.8,3.2-3.7,5c-5.6,11.3-13.7,18.8-19,30.3
			c-2.9,6.3-5.9,16.1-4.9,24c1.1,8.9,1,19.2,1.5,28.2c0.1,1.3,1.3,8.7-0.9,11.7c-2.9,3.8-7.1,6.6-13.5,3.4
			c-13.3-6.5-27.2-12.6-40.4-19.2c-5-2.5-5.4-4.5-7.9-9c-1.6-2.8-2.9-5.5-3.8-8.6c-3.6-12-5.7-23.7-14-34.4
			c-0.2-0.3-0.4-0.5-0.5-0.8c-1.7-3.6-4.3-5.9-7.1-9.3c-11.4-14-20.9-30.1-30.2-45.5c-7-11.6-16.8-23.6-26.3-34.3
			c1.3-0.6,2.1-1.1,2.9-1.5c13.9-5.1,25.2-14.3,32.5-26.5c2.7-4.5,3.2-5.8,6.3-8.3c1.8-1.5,8.7-1.1,12.8-1.5
			c2.1,0.2,4.6,0.2,6.7,0.2c1.1,0,3-0.2,4,0.5c0.6,0.4-0.2,3.4-0.5,4.1c-0.5,1.1-2,0.9-3.2,1.1c-12,2.2-15.2,6.6-15.7,17.9
			c0.3,7.6,4.6,12.5,11.7,14.1c8.6,2,14.9-0.8,18.9-8.3c3.2-6,1.8-14.7-2.8-19.2c-1.5-1.4-3.3-4-3.2-5.1c0.1-0.7,0.1-1.3,0.2-1.9
			c0.2-0.7,0.2-1.8,0.5-2.5c0.8-1.4,4.6-1.5,6-1.8c4.7-0.3,7.9-0.5,10.4-0.5c1.3,0,2.8,0.7,3.6,2.4c1.6,3.6,2.6,5,3.8,8.8
			c0.3,1.1,0.8,2.9,1.1,4c0.9,4.2,2.2,8,7.8,8.1c1.2,0,3,1.5,3.6,2.7c2.4,4.9,5.2,4.8,9.3,1.7c2.4-1.8,5.6-2.4,8.4-3.8
			c3.4-1.7,11-6.6,14.5-9.2c0.9-0.7-0.3-2.7-1.4-2.5c-1.1,0.2-5.2,1.3-6.2,0.8c2.1-1,3.1-1.3,5.2-2.2c0.9-0.4,1.9-0.4,2.8-0.8
			c0.4-0.2,4.8-1.3,5.2-1.5c4-1.4,6.9-7.8,3.1-7.6c-2.9,0.2-13.6,1.3-15.1,2.1c-5.2,2.7-5.6-1.6-7.4-4.9c-1.3-2.3-2.2-4.7-3-7.1
			c-3.1-10.2-6.2-20.3-9.1-30.5c-1.3-4.8-2-9.7-3.2-14.5c-1.1-4.4-2.1-8.8-4-12.9c-3.7-8.3-11.6-12.5-19.4-14.4
			c-7.6-1.9-4.4-5-3.6-9.7c0.3-1.6-0.2-3.3-1.2-4.6c-3.4-4.5-3-7,0.8-7.5c7.2-0.9,14.4-1.9,21.6-1.9c4.6,0,12.6,1.2,16.7,1.9
			c1.1,0.2,2.3-0.3,3-1.2c1.4-1.9-1.8-1.9-3.1-2.9c-1.1-0.8-0.8-2.1-0.3-2.5c1-0.9,1.6-1.5,3.1-1.9c1.7-0.4,4.4-1.2,8.1-0.4
			c0.6,0.1,1.1-0.5,0.8-1.1c-1.4-2.7-1.3-3.6-3.2-4.4c-6.9-3-13.1-0.2-19.9,3.3c-4.8,2.4-11.8,1.2-17.3,0.7c-2.2-0.2-9-0.8-9.5-1.5
			c-1-1.5-0.9-2.1-5.7-1.4c-4,0.6-11.9-1.4-15.5-3.1c-6.9-6.1-12.5-5.1-17.7-9.1c-4.1-3.2-7.8-2.8-4.9-7.1c0.5-0.7,2.4-4.3,2.9-5.5
			c0.4-0.9,0.5-1.9,0.7-2.8c0.8-4.3,4.1-5.8,4.6-9.5c0.4-3.4-1.7-7.2-1.8-9.8c-0.1-1.8-0.7-4.9-0.2-6.8c1.2-4.5,0.4-7.5-3.3-10
			c-8.4-5.8-17.2-2.5-26.2-1.9c-5.2,0.3-9.7,3.4-12,8.1c-3.4,7-7.5,15.5-10.7,21.7c-1.9,3.6-4.9,6.3-7.8,9.3
			c-1.1,1.2-2.5,2.7-3.2,4.3c-3.1,6.6-4.8,6.4-9.9,1.3c-2.4-2.4-5.6-4.6-8.2-5.8c-0.6-0.3-1.6-0.3-2.3-0.4
			c-5.4-0.6-13.2,1.2-14.8,5.2c-0.3,1,1.2,2,1.9,1.9c3.2-0.2,8.1-1.7,11.3-2.1c2.1-0.3,4.6-1,5.8,0.4c1.3,1.6,5.6,3.5,6.3,7.7
			c0.2,1.1,0.4,1.5,0.6,2.3c3.2,11.5,5.5,41.3,6.1,44c1.2,6.2,2.3,9.4-5.3,10.4c-14.9,2-25.6,10.4-33.8,21.9
			c-12.4,17.4-13.7,36.5-6.3,56.3c1.6,4.4,0.8,5.7-4.1,5.5c-1.1-0.1-2.8-0.3-3.3,0.3c-4.9,6.4-9.9,11-12.4,18
			c-3.7,10.4-9.2,16.2-13.8,23.6c-1.7,2.7-2.9,2.8-5.5,0.6c-4.9-4.2-10.1-10.2-15.9-12.7c-13.1-5.9-18.6-13.9-28.1-23.9
			c-5.6-5.9-8.3-13.8-10.7-21.1c-2-6.2-4.8-12.9-8.9-17.7c-9.2-11.1-22.3-20.1-32.3-30.7c-5.9-6.3-10.1-13.1-15.4-19.9
			c-1.9-2.5-5.4-10.4-5.4-10.4s42.2,1.2,58.7,0.9c11.5,0,75.7-1.3,88.5-0.3c2.5,0.2,1.5-184.9,1.2-197.7c-0.2-7.5,1.9-6.1,9.3-6.1
			c26.6,0.2,53.1,0.6,79.7,0.8c4.9,0,6.8,2,6.8,7c0,20-1,39-0.4,59.9c0.2,6.4,1.9,11.2,7.1,15.1c2.6,2,4.7,4.2,7.3,6.2
			c7.6,5.7,14.4,14.1,24.7,15.8c5.6,0.9,11.2,1.5,16.3,3.9c3.5,1.7,5.2,1.1,7.9-1.4c6.6-0.8,14-2.8,16.6,3.7
			c2.4,5.9,4.6,11.8,7,17.9c0.7,1.7,2.7,2.4,4.2,1.4c0,0,0,0,0,0c8.9-3.9,18-10,28.1-5.3c1.2,0.6,3.9-0.3,5-1.4
			c5.4-5.3,15.2-5,22.2-0.6c2.4,1.4,4.9,4.2,7.2,4.1c12.6-0.7,25.2-2,37.8-3.5c2.1-0.2,5.2-2.3,5.6-4.1c1.5-6.7,4.6-3.7,9-2.9
			c5.6,1,9.5,6.5,14.3,9.6c5.9,3.8,11.5,8.6,19.4,7.1c5.7-1.2,9.4,3.6,9.9,9.5c0.8,9.5-1.1,47-0.2,57.9c0.3,4,4.7,7.4,9.8,8.5
			c2.5,0.5,4,4,5.1,6.5c3,7,4.8,13.8,7.8,20.8c3,7.2,2.4,13.2-1.7,20c-8.6,14.1-7.2,14.8,2.6,27.6
			C536.7,328.5,533.2,337.1,525.9,338.5z M238.8,200.3c2.6-3.3,6.2-1.1,7-0.2c0.4,0.4,1,1.2,1.6,1.9c0.3,0.4,0.6,0.8,0.9,1.1
			c0.6,0.6,0.3,0.6,0.9-0.2c1.1-1.5,3.4-3.8,5.6-4.1c1.7-0.2,3.2,0.3,4.3,2c0.5,0.7,0.9,2.9,0.6,4.4c-0.1,0.5-0.2,0.8-0.5,1.3
			c-0.5,0.9-1.4,1.8-2.2,2.7c-1.7,2-3.7,4.1-5.8,6c-2.3,2-2.2,1.9-4.3,0.2c-2-1.6-4.2-4.2-6.4-6.6c-1-1.1-2.1-2.3-2.5-3.1
			c-0.4-0.9-0.7-1.3-0.7-1.8C237.5,202.1,237.5,202,238.8,200.3z M310.1,282.5c2.8,4,5.1,10,7.9,15.9c4,8.5,7.1,16.5,6.5,18.9
			c-0.7,3-8,2.1-15.6,2.9c-1.3,0.1-0.1-6.8-2-6.6c-0.9,0.1-3.4-0.4-3.7,1.2c-0.4,2.2,0.1,5.4-0.3,5.4c-2.5,0.3-8.8-0.4-13.6-0.3
			c-1.5,0-2.1,0-3.4,0c-7.8,0.3-5.6-1.9-5.3-5.4c0.3-2.9,1-12.9-0.8-21c-1.4-6.3-0.5-2.1-3.2-9.3c-1.4-3.6,1.5-2.2,2.5-2.2
			c2.2-0.1,6.3,0.2,13.1-0.4C297.7,281.1,307.4,278.7,310.1,282.5z M292.5,224.9c0.5-1.6,2.9-2.6,3.4-3c6,0,9.6,1.5,9.7,6.2
			c0,1.3-3.5,3.4-5.6,3.8C296.7,232.4,291.7,227.7,292.5,224.9z M313.8,276.9c0.1-1.2,1.7-1.7,2.7-1c1.7,1.3,1.4,1,2.5,2.1
			c2,2,5.1,1.9,5.3,3.8c0.1,1.6,1.5,8.7,0.2,13c-0.1,0.3-0.6,0.4-0.8,0.1C318.4,285.5,313.5,279.8,313.8,276.9z M345,314.2
			c0.8,2.4,0.3,2.3,1.7,4.5c0.2,0.3,5.8,8.3,4.9,7.8c-5-2.8-8.1-7-8.7-12.5C342.7,311.9,344.4,312.2,345,314.2z"/>
		<path class="st0" d="M480,285.6c-0.6-2.3-2.3-4.2-3.4-6.3c-0.6,0-1.2,0-1.8,0c-0.7,1.6-2.3,3.4-2.1,4.9c0.9,8.5,2.2,17,3.3,25.5
			c1,7.2,2.1,14.4,2.8,21.6c0.1,1.2-1.1,2.6-1.7,3.8c-1.1-1.1-2.5-2.1-3.1-3.4c-1-2-1.3-4.5-2.3-6.5c-2.4-5-4.2-10.5-7.7-14.6
			c-8-9.7-17.5-18.1-23.5-29.5c-1.9-3.5-3.5-7.4-6.1-10.3c-4.1-4.5-4.3-9.6-4.3-15c0.1-5.7,0.1-11.4-0.5-17c-0.2-2-2.1-4.2-3.8-5.5
			c-7.2-5.3-22.4-3.3-28.9,2.6c-3,2.7-7.5,3.8-11.5,5.4c-2.1,0.8-4.6,0.7-6.6,1.8c-1,0.5-1.9,3.3-1.4,4c3.5,4.7,6.7,9.6,13.9,9.7
			c6.6,0.1,9,4.1,6.7,10.2c-2.1,5.5-5.3,10.6-7.4,16.2c-2.4,6.3-6,3.1-9.6,0.3c-2.4-1.8-4.6-3.9-6.8-5.9c-1.7-1.5-2.9-2.8-4.9-3.3
			c-2-0.5-4.4,0.2-6.3,0.9c-1.6,0.6-3.2,1.8-4.5,3.2c-0.8,0.9-2.3,2.6-2.6,4c-0.3,1.2,0.5,2.4,1.7,2.6c1.5,0.2,3.8-0.4,4.7-1
			c6.5-4.5,9.2,1,13.1,8c1.7,3.1,4,5.9,6.4,8.6c1.9,2.1,2.8,6.1,7.3,4.3c0.8-0.3,4.4,1.9,4.7,3.5c1.8,8.7,2.8,17.9,3.9,26.8
			c0.5,3.9-0.3,8-0.8,12c-0.1,0.6-2,1-2.8,1.6c-0.8,0.6-0.9,1.4-0.9,2c-0.1,0.8-0.2,1.6,0.7,1.7c2.1,0.2,6.1,0.5,7-0.3
			c1.6-1.3,2-3.8,2.2-5.9c0.6-7,1.2-14.2,1.7-21.2c0.3-3.4,2.6-6.1,5.8-3.3c7,6.2,12.1,13.8,19.9,19.7c4.1,3.1,1.4,5.2-2.9,5.4
			c-1.4,0.1-5.7,0.2-7,0.8c-2.1,0.9-11.9,6.4,0,7.3c1,0.1,4.7,0.1,5.6,0.1c13.2,0.2,26.5,0.7,39.7-0.2c5.7-0.4,13-2.2,16.6-6.1
			c7-7.8,7.9-18.8,6.5-28.8C487.2,308.3,483.2,297,480,285.6z M427.7,288.4c-0.1,0.5-0.2,0.8-0.5,1.3c-0.5,0.9-1.4,1.8-2.2,2.7
			c-1.7,2-3.7,4.1-5.8,6c-2.3,2-2.2,1.9-4.3,0.2c-2-1.6-4.2-4.2-6.4-6.6c-1-1.1-2.1-2.3-2.5-3.1c-0.4-0.9-0.7-1.3-0.7-1.8
			c0-2-0.1-2.1,1.3-3.7c2.6-3.3,6.2-1.1,7-0.2c0.4,0.4,1,1.2,1.6,1.9c0.3,0.4,0.6,0.8,0.9,1.1c0.6,0.6,0.3,0.6,0.9-0.2
			c1.1-1.5,3.4-3.8,5.6-4.1c1.7-0.2,3.2,0.3,4.3,2C427.6,284.7,428,286.9,427.7,288.4z"/>
		<path class="st0" d="M398.6,376.9c-0.3,0-0.5,0-0.8,0.1c0,0.5-0.2,1.2-0.1,1.7c0.2,0.7,0.6,1.4,1,2c4.3,6.6,4,9.7-1.3,15.1
			c-1.4,1.4-2.3,1.8-3.7,2.6c-0.1,0.1-0.2,0.2-0.3,0.2c-7.4,6.3-4.4-1.5-5.5-3.6c-2.5-4.9-1.8-8.3-4.3-13.3c-0.4-1.1-2.6-4-2.5-10
			c0.1-3.6-0.6-7.2-0.7-10.5c-0.2-5.5-0.2-9.7-1.6-8.8c-0.5,0.3-2.6,2-4.3,2.7s-4.1,0.5-5.7,0.5c-1.4,0-2.6-0.4-3.5-0.9
			c-1.7-1-3.9,0.4-3.8,2.4c0.1,1.3,0.2,2.9,0.5,4.8c0.3,2.6-1.3,6.1-0.7,9c1.1,5-1.6,10.2-2.1,12.5c0,0.1-0.1,0.3-0.1,0.4
			c-4,8.8-1.1,17.7-0.9,26.4c0.1,2.5,3,4.1,5.9,4.4c0.1,0,0.3,0,0.4,0c0.5,0,1-0.1,1.5-0.3c1.4-0.4,3.1-0.9,4.5-0.8
			c0.8,0,1.5,0,2.1,0.3c1.5,0.7,3,1.1,4.4,1.2c0.1,0,0.3,0,0.4,0c3-0.2,5.6-1.6,8.2-3.6c5.3-4.1,10.6-8.2,15.4-12.7
			c2.6-2.4,3-4,4.5-7.2C408.1,385.8,404.7,377.2,398.6,376.9z M379.6,383.3c-0.1,0.4-0.1,0.6-0.4,1c-0.4,0.7-1.1,1.3-1.6,2
			c-1.3,1.5-2.8,3.1-4.4,4.5c-1.7,1.5-1.6,1.5-3.2,0.2c-1.5-1.2-3.2-3.2-4.8-5c-0.8-0.8-1.6-1.7-1.8-2.4c-0.3-0.7-0.5-1-0.5-1.4
			c0-1.5,0-1.6,1-2.8c2-2.5,4.7-0.8,5.3-0.2c0.3,0.3,0.7,0.9,1.2,1.5c0.3,0.3,0.5,0.6,0.7,0.9c0.4,0.4,0.2,0.5,0.7-0.1
			c0.8-1.1,2.5-2.9,4.2-3.1c1.3-0.2,2.4,0.3,3.3,1.5C379.5,380.5,379.8,382.1,379.6,383.3z"/>
		<path class="st0" d="M497.1,104.2c-10.2,0-18.4,8.3-18.4,18.4c0,10.2,8.3,18.4,18.4,18.4c10.2,0,18.4-8.3,18.4-18.4
			C515.5,112.4,507.3,104.2,497.1,104.2z M497.1,137.5c-8.1,0-14.8-6.6-14.8-14.8c0-8.1,6.6-14.8,14.8-14.8s14.8,6.6,14.8,14.8
			C511.9,130.9,505.3,137.5,497.1,137.5z"/>
		<text transform="matrix(1 0 0 1 488.1663 132.3683)" class="st0 st1 st2">R</text>
	</g>
	<text transform="matrix(1.0275 0 0 1 282.396 71.3966)" class="st0 st1 st3">PET</text>
	<text transform="matrix(0.8119 0 0 1 156.3207 25.249)" class="st0 st1 st4">THERAPY</text>
	<text transform="matrix(1.0411 0 0 1 284.4622 127.0097)" class="st0 st1 st5">PALS</text>
	<text transform="matrix(0.9532 0 0 1 137.407 418.4153)"><tspan x="0" y="0" class="st0 st1 st6">Founded</tspan><tspan x="7.9" y="36.6" class="st0 st1 st7">1984</tspan></text>
	<text transform="matrix(1 0 0 1 439.5527 441.8539)"><tspan x="0" y="0" class="st0 st1 st8">OF</tspan><tspan x="-34.5" y="34" class="st0 st1 st8">TEXAS</tspan></text>
</g>
</svg>
